<?xml version="1.0" encoding="UTF-8" standalone="no"?>
<!DOCTYPE svg PUBLIC "-//W3C//DTD SVG 1.1//EN" "http://www.w3.org/Graphics/SVG/1.1/DTD/svg11.dtd">
<svg xmlns="http://www.w3.org/2000/svg" version="1.1" viewBox="0.00 0.00 241.00 318.00">
<g stroke-width="2.00" fill="none" stroke-linecap="butt">
<path stroke="#85dfde" vector-effect="non-scaling-stroke" d="
  M 80.28 52.20
  L 152.76 52.11
  A 1.20 1.20 0.0 0 1 153.96 53.33
  Q 153.83 64.58 153.96 74.51
  C 154.09 84.42 161.78 90.87 171.25 90.80
  Q 184.77 90.70 193.06 90.94
  A 1.68 1.66 68.2 0 1 194.19 91.43
  L 194.89 92.13
  A 1.37 1.33 -20.1 0 0 195.77 92.52
  L 206.78 93.05
  A 1.17 1.16 68.6 0 1 207.55 93.39
  L 210.34 96.18
  A 0.32 0.31 23.5 0 0 210.88 95.97
  Q 210.91 94.74 210.84 84.83
  Q 210.80 79.35 208.41 77.07
  Q 192.10 61.49 181.98 51.37
  C 175.01 44.39 168.22 36.28 163.69 36.28
  Q 117.73 36.25 71.67 36.26"
/>
<path stroke="#85cbdb" vector-effect="non-scaling-stroke" d="
  M 71.67 36.26
  Q 63.71 36.31 55.70 36.28
  Q 43.81 36.24 41.01 37.57
  Q 35.34 40.26 32.67 46.15
  Q 31.24 49.33 31.26 58.03
  Q 31.33 88.62 31.26 135.26
  A 1.14 1.13 7.2 0 0 32.12 136.36
  Q 48.52 140.54 63.86 147.25
  C 74.44 151.88 83.53 157.91 92.37 165.73
  A 1.77 1.76 36.6 0 0 95.04 165.34
  L 101.83 154.34
  A 1.82 1.82 0.0 0 0 101.43 151.97
  C 85.51 138.93 68.23 130.86 48.72 124.58
  A 2.03 2.03 0.0 0 1 47.31 122.65
  L 47.31 53.49
  A 1.30 1.30 0.0 0 1 48.61 52.19
  L 80.28 52.20"
/>
<path stroke="#0baaba" vector-effect="non-scaling-stroke" d="
  M 71.67 36.26
  L 80.28 52.20"
/>
<path stroke="#88d7dc" vector-effect="non-scaling-stroke" d="
  M 129.61 87.24
  Q 128.03 88.79 125.69 89.43
  Q 125.26 89.55 125.25 89.88
  Q 125.25 90.21 125.68 90.34
  Q 128.01 91.02 129.56 92.60
  Q 131.11 94.18 131.75 96.53
  Q 131.87 96.96 132.20 96.96
  Q 132.53 96.97 132.66 96.53
  Q 133.34 94.21 134.92 92.65
  Q 136.50 91.10 138.85 90.47
  Q 139.28 90.35 139.28 90.02
  Q 139.29 89.69 138.85 89.56
  Q 136.53 88.88 134.97 87.29
  Q 133.42 85.71 132.79 83.37
  Q 132.67 82.94 132.34 82.93
  Q 132.01 82.93 131.88 83.36
  Q 131.20 85.69 129.61 87.24"
/>
<path stroke="#88d7dc" vector-effect="non-scaling-stroke" d="
  M 147.40 103.55
  C 145.06 105.89 142.07 107.01 138.90 107.94
  A 0.54 0.54 0.0 0 0 138.93 108.98
  Q 149.20 111.35 151.58 121.65
  A 0.57 0.57 0.0 0 0 152.69 121.68
  C 153.51 118.69 154.91 115.55 157.14 113.33
  C 159.37 111.11 162.51 109.72 165.51 108.91
  A 0.57 0.57 0.0 0 0 165.48 107.80
  Q 155.19 105.38 152.86 95.10
  A 0.54 0.54 0.0 0 0 151.82 95.07
  C 150.88 98.23 149.75 101.22 147.40 103.55"
/>
<path stroke="#88d7dc" vector-effect="non-scaling-stroke" d="
  M 202.3657 102.7131
  A 1.48 1.48 0.0 0 0 200.8831 101.2357
  L 195.9631 101.2443
  A 1.48 1.48 0.0 0 0 194.4857 102.7269
  L 194.4943 107.6469
  A 1.48 1.48 0.0 0 0 195.9769 109.1243
  L 200.8969 109.1157
  A 1.48 1.48 0.0 0 0 202.3743 107.6331
  L 202.3657 102.7131"
/>
<path stroke="#88d7dc" vector-effect="non-scaling-stroke" d="
  M 222.62 129.88
  Q 223.03 129.88 223.15 129.33
  C 224.01 125.35 226.16 122.07 229.71 120.25
  Q 232.28 118.93 232.33 118.88
  A 0.47 0.47 0.0 0 0 232.24 118.15
  Q 232.22 118.13 230.39 117.51
  C 226.65 116.23 224.07 112.69 223.24 108.84
  Q 223.13 108.31 222.70 108.31
  Q 222.27 108.31 222.15 108.84
  C 221.29 112.68 218.69 116.20 214.94 117.45
  Q 213.11 118.06 213.09 118.08
  A 0.47 0.47 0.0 0 0 212.99 118.81
  Q 213.04 118.86 215.60 120.20
  C 219.14 122.04 221.26 125.34 222.09 129.32
  Q 222.21 129.88 222.62 129.88"
/>
<path stroke="#84b6d8" vector-effect="non-scaling-stroke" d="
  M 145.57 156.51
  Q 138.61 167.28 125.29 189.55
  Q 122.87 193.60 103.83 224.10
  C 101.36 228.07 99.15 232.15 95.33 232.67
  C 91.58 233.19 87.97 231.17 86.25 228.17
  C 78.49 214.68 70.10 201.40 56.53 192.51
  Q 47.13 186.35 44.96 185.32
  Q 39.37 182.64 32.03 180.06
  A 0.53 0.53 0.0 0 0 31.32 180.56
  Q 31.37 205.40 31.33 255.75
  Q 31.32 261.97 31.64 263.33
  Q 34.73 276.30 48.50 276.14
  Q 66.32 275.93 98.07 276.16
  Q 126.94 276.38 140.25 252.81
  Q 143.60 246.88 144.13 246.01
  Q 157.45 224.25 179.05 189.59
  C 180.12 187.87 180.88 185.92 181.87 184.37
  Q 186.94 176.41 191.76 168.53
  Q 192.83 166.78 193.81 164.70
  A 0.91 0.91 0.0 0 0 193.68 163.71
  Q 192.12 161.91 194.49 159.88
  A 1.15 1.13 26.6 0 1 195.33 159.61
  C 196.36 159.72 196.80 159.74 197.46 158.68
  Q 198.72 156.63 199.60 154.94
  A 0.87 0.87 0.0 0 0 199.48 153.98
  Q 199.28 153.74 198.78 153.63
  Q 198.26 153.52 197.97 152.66
  Q 197.94 152.57 197.74 151.12
  C 197.48 149.31 196.50 148.01 194.43 148.75
  A 0.76 0.73 5.1 0 0 194.02 149.08
  L 190.07 155.48
  A 1.61 1.61 0.0 0 1 187.36 155.53
  Q 185.85 153.26 186.71 151.61
  A 1.27 1.25 13.5 0 1 187.83 150.94
  L 189.68 150.94
  A 1.15 1.15 0.0 0 0 190.66 149.20
  Q 189.90 147.92 189.63 146.64
  A 0.80 0.80 0.0 0 1 190.08 145.76
  Q 191.38 145.20 191.73 145.06
  A 2.10 2.09 74.7 0 0 193.06 142.72
  Q 192.77 141.13 190.86 141.14
  A 1.36 1.35 7.0 0 0 189.56 142.15
  Q 189.09 143.95 187.57 145.74
  Q 186.90 146.53 185.31 149.02
  Q 170.98 171.54 166.05 179.51
  C 163.19 184.14 160.33 189.57 157.93 193.41
  Q 142.99 217.26 128.36 241.16
  C 126.59 244.05 123.61 247.75 122.30 249.96
  C 118.45 256.45 109.69 259.80 102.72 259.92
  Q 84.60 260.23 48.95 260.03
  A 1.68 1.68 0.0 0 1 47.28 258.35
  L 47.28 206.41
  A 0.36 0.36 0.0 0 1 47.85 206.12
  C 56.23 212.07 62.90 220.72 68.13 229.65
  Q 73.12 238.17 75.21 240.37
  C 84.30 249.88 98.39 251.65 108.70 243.86
  Q 112.31 241.12 119.52 229.48
  Q 140.01 196.40 144.75 188.28
  Q 151.65 176.44 156.40 169.39"
/>
<path stroke="#88d7dc" vector-effect="non-scaling-stroke" d="
  M 156.40 169.39
  L 182.60 127.40
  A 5.19 5.15 86.9 0 1 183.73 126.13
  L 185.17 124.96
  A 2.56 2.48 -11.2 0 0 186.00 123.76
  Q 186.99 120.71 186.14 117.32
  A 0.94 0.94 0.0 0 0 185.40 116.63
  Q 182.43 116.09 179.57 116.80
  A 1.83 1.83 0.0 0 0 178.19 118.57
  L 178.19 124.62
  A 0.97 0.95 67.8 0 1 177.91 125.30
  Q 176.53 126.66 174.28 130.19
  C 173.08 132.07 172.01 132.85 169.91 131.82
  Q 164.96 129.41 164.79 129.33
  A 1.28 1.27 -47.3 0 0 163.65 129.38
  Q 161.75 130.43 160.46 132.47
  Q 152.88 144.42 145.57 156.51"
/>
<path stroke="#0c8eb5" vector-effect="non-scaling-stroke" d="
  M 156.40 169.39
  L 149.73 163.20"
/>
<path stroke="#88d7dc" vector-effect="non-scaling-stroke" d="
  M 149.73 163.20
  C 150.74 164.04 152.30 164.69 153.24 163.41
  C 155.84 159.89 151.34 157.26 149.65 160.78"
/>
<path stroke="#0c8eb5" vector-effect="non-scaling-stroke" d="
  M 149.65 160.78
  L 145.57 156.51"
/>
<path stroke="#84b6d8" vector-effect="non-scaling-stroke" d="
  M 149.65 160.78
  Q 149.21 161.91 149.73 163.20"
/>
<path stroke="#88d7dc" vector-effect="non-scaling-stroke" d="
  M 201.7656 122.4439
  A 1.33 1.33 0.0 0 0 200.4332 121.1162
  L 196.0732 121.1238
  A 1.33 1.33 0.0 0 0 194.7456 122.4561
  L 194.7544 127.5361
  A 1.33 1.33 0.0 0 0 196.0868 128.8638
  L 200.4468 128.8562
  A 1.33 1.33 0.0 0 0 201.7744 127.5239
  L 201.7656 122.4439"
/>
<path stroke="#85bed9" vector-effect="non-scaling-stroke" d="
  M 92.29 184.31
  Q 74.22 164.62 48.52 155.23
  Q 30.68 148.71 10.71 144.62
  A 0.40 0.39 89.0 0 0 10.25 145.10
  L 13.79 160.62
  A 1.50 1.50 0.0 0 0 14.89 161.73
  Q 27.91 164.91 35.22 167.32
  Q 46.63 171.09 57.52 176.95
  C 72.27 184.90 84.29 198.63 92.51 213.36
  A 1.11 1.10 54.6 0 0 94.20 213.65
  Q 95.00 212.94 95.47 212.23
  Q 97.84 208.63 110.52 186.95
  Q 118.24 173.73 125.78 161.79
  Q 139.80 139.58 142.52 134.53
  C 144.79 130.33 143.37 127.58 140.34 124.36
  Q 136.41 120.18 131.90 122.46
  A 2.42 2.40 2.3 0 0 130.92 123.36
  L 93.35 184.21
  A 0.67 0.67 0.0 0 1 92.29 184.31"
/>
<path stroke="#88d7dc" vector-effect="non-scaling-stroke" d="
  M 212.2226 136.8828
  A 1.94 1.94 0.0 0 0 210.2927 134.9326
  L 205.4928 134.9075
  A 1.94 1.94 0.0 0 0 203.5427 136.8373
  L 203.5174 141.6572
  A 1.94 1.94 0.0 0 0 205.4473 143.6074
  L 210.2472 143.6325
  A 1.94 1.94 0.0 0 0 212.1973 141.7027
  L 212.2226 136.8828"
/>
<path stroke="#85bed9" vector-effect="non-scaling-stroke" d="
  M 202.70 149.17
  A 1.25 1.25 0.0 0 0 201.45 147.92
  A 1.25 1.25 0.0 0 0 200.20 149.17
  A 1.25 1.25 0.0 0 0 201.45 150.42
  A 1.25 1.25 0.0 0 0 202.70 149.17"
/>
<path stroke="#84c6da" vector-effect="non-scaling-stroke" d="
  M 128.87 275.29
  A 0.46 0.46 0.0 0 0 129.19 276.07
  Q 188.32 276.06 189.35 276.09
  Q 198.18 276.33 201.45 274.79
  C 211.97 269.84 210.96 262.20 210.91 249.67
  Q 210.88 240.29 210.82 155.19
  Q 210.82 154.87 210.46 154.73
  Q 210.05 154.57 209.82 154.93
  Q 200.96 168.80 197.85 173.83
  C 196.50 176.01 194.78 178.50 194.78 180.76
  Q 194.78 216.23 194.90 255.37
  Q 194.91 257.45 194.47 259.33
  A 0.98 0.98 0.0 0 1 193.51 260.10
  Q 155.67 260.09 146.75 260.13
  Q 144.64 260.14 143.65 261.62
  C 140.32 266.56 135.83 271.38 130.86 273.96
  Q 129.49 274.67 128.87 275.29"
/>
<path stroke="#85dfde" vector-effect="non-scaling-stroke" d="
  M 185.52 76.42
  A 0.37 0.37 0.0 0 0 185.77 75.79
  Q 178.08 68.26 171.63 61.87
  Q 170.43 60.67 168.94 60.05
  A 0.36 0.36 0.0 0 0 168.45 60.38
  L 168.45 73.89
  A 1.96 1.96 0.0 0 0 169.61 75.68
  Q 171.48 76.52 174.75 76.49
  Q 180.91 76.42 185.52 76.42"
/>
<path stroke="#88d7dc" vector-effect="non-scaling-stroke" d="
  M 165.8652 143.4012
  A 1.72 1.72 0.0 0 0 164.4355 141.4333
  L 161.6502 140.9921
  A 1.72 1.72 0.0 0 0 159.6823 142.4219
  L 159.1348 145.8788
  A 1.72 1.72 0.0 0 0 160.5645 147.8467
  L 163.3498 148.2879
  A 1.72 1.72 0.0 0 0 165.3177 146.8581
  L 165.8652 143.4012"
/>
<path stroke="#85bed9" vector-effect="non-scaling-stroke" d="
  M 130.6792 134.2413
  A 3.56 3.31 -97.6 0 0 127.8691 138.2078
  A 3.56 3.31 -97.6 0 0 131.6208 141.2987
  A 3.56 3.31 -97.6 0 0 134.4309 137.3322
  A 3.56 3.31 -97.6 0 0 130.6792 134.2413"
/>
<path stroke="#84b6d8" vector-effect="non-scaling-stroke" d="
  M 185.54 168.09
  A 2.44 2.44 0.0 0 0 183.10 165.65
  A 2.44 2.44 0.0 0 0 180.66 168.09
  A 2.44 2.44 0.0 0 0 183.10 170.53
  A 2.44 2.44 0.0 0 0 185.54 168.09"
/>
</g>
<path fill="#ffffff" d="
  M 241.00 0.00
  L 241.00 318.00
  L 0.00 318.00
  L 0.00 0.00
  L 241.00 0.00
  Z
  M 80.28 52.20
  L 152.76 52.11
  A 1.20 1.20 0.0 0 1 153.96 53.33
  Q 153.83 64.58 153.96 74.51
  C 154.09 84.42 161.78 90.87 171.25 90.80
  Q 184.77 90.70 193.06 90.94
  A 1.68 1.66 68.2 0 1 194.19 91.43
  L 194.89 92.13
  A 1.37 1.33 -20.1 0 0 195.77 92.52
  L 206.78 93.05
  A 1.17 1.16 68.6 0 1 207.55 93.39
  L 210.34 96.18
  A 0.32 0.31 23.5 0 0 210.88 95.97
  Q 210.91 94.74 210.84 84.83
  Q 210.80 79.35 208.41 77.07
  Q 192.10 61.49 181.98 51.37
  C 175.01 44.39 168.22 36.28 163.69 36.28
  Q 117.73 36.25 71.67 36.26
  Q 63.71 36.31 55.70 36.28
  Q 43.81 36.24 41.01 37.57
  Q 35.34 40.26 32.67 46.15
  Q 31.24 49.33 31.26 58.03
  Q 31.33 88.62 31.26 135.26
  A 1.14 1.13 7.2 0 0 32.12 136.36
  Q 48.52 140.54 63.86 147.25
  C 74.44 151.88 83.53 157.91 92.37 165.73
  A 1.77 1.76 36.6 0 0 95.04 165.34
  L 101.83 154.34
  A 1.82 1.82 0.0 0 0 101.43 151.97
  C 85.51 138.93 68.23 130.86 48.72 124.58
  A 2.03 2.03 0.0 0 1 47.31 122.65
  L 47.31 53.49
  A 1.30 1.30 0.0 0 1 48.61 52.19
  L 80.28 52.20
  Z
  M 129.61 87.24
  Q 128.03 88.79 125.69 89.43
  Q 125.26 89.55 125.25 89.88
  Q 125.25 90.21 125.68 90.34
  Q 128.01 91.02 129.56 92.60
  Q 131.11 94.18 131.75 96.53
  Q 131.87 96.96 132.20 96.96
  Q 132.53 96.97 132.66 96.53
  Q 133.34 94.21 134.92 92.65
  Q 136.50 91.10 138.85 90.47
  Q 139.28 90.35 139.28 90.02
  Q 139.29 89.69 138.85 89.56
  Q 136.53 88.88 134.97 87.29
  Q 133.42 85.71 132.79 83.37
  Q 132.67 82.94 132.34 82.93
  Q 132.01 82.93 131.88 83.36
  Q 131.20 85.69 129.61 87.24
  Z
  M 147.40 103.55
  C 145.06 105.89 142.07 107.01 138.90 107.94
  A 0.54 0.54 0.0 0 0 138.93 108.98
  Q 149.20 111.35 151.58 121.65
  A 0.57 0.57 0.0 0 0 152.69 121.68
  C 153.51 118.69 154.91 115.55 157.14 113.33
  C 159.37 111.11 162.51 109.72 165.51 108.91
  A 0.57 0.57 0.0 0 0 165.48 107.80
  Q 155.19 105.38 152.86 95.10
  A 0.54 0.54 0.0 0 0 151.82 95.07
  C 150.88 98.23 149.75 101.22 147.40 103.55
  Z
  M 202.3657 102.7131
  A 1.48 1.48 0.0 0 0 200.8831 101.2357
  L 195.9631 101.2443
  A 1.48 1.48 0.0 0 0 194.4857 102.7269
  L 194.4943 107.6469
  A 1.48 1.48 0.0 0 0 195.9769 109.1243
  L 200.8969 109.1157
  A 1.48 1.48 0.0 0 0 202.3743 107.6331
  L 202.3657 102.7131
  Z
  M 222.62 129.88
  Q 223.03 129.88 223.15 129.33
  C 224.01 125.35 226.16 122.07 229.71 120.25
  Q 232.28 118.93 232.33 118.88
  A 0.47 0.47 0.0 0 0 232.24 118.15
  Q 232.22 118.13 230.39 117.51
  C 226.65 116.23 224.07 112.69 223.24 108.84
  Q 223.13 108.31 222.70 108.31
  Q 222.27 108.31 222.15 108.84
  C 221.29 112.68 218.69 116.20 214.94 117.45
  Q 213.11 118.06 213.09 118.08
  A 0.47 0.47 0.0 0 0 212.99 118.81
  Q 213.04 118.86 215.60 120.20
  C 219.14 122.04 221.26 125.34 222.09 129.32
  Q 222.21 129.88 222.62 129.88
  Z
  M 145.57 156.51
  Q 138.61 167.28 125.29 189.55
  Q 122.87 193.60 103.83 224.10
  C 101.36 228.07 99.15 232.15 95.33 232.67
  C 91.58 233.19 87.97 231.17 86.25 228.17
  C 78.49 214.68 70.10 201.40 56.53 192.51
  Q 47.13 186.35 44.96 185.32
  Q 39.37 182.64 32.03 180.06
  A 0.53 0.53 0.0 0 0 31.32 180.56
  Q 31.37 205.40 31.33 255.75
  Q 31.32 261.97 31.64 263.33
  Q 34.73 276.30 48.50 276.14
  Q 66.32 275.93 98.07 276.16
  Q 126.94 276.38 140.25 252.81
  Q 143.60 246.88 144.13 246.01
  Q 157.45 224.25 179.05 189.59
  C 180.12 187.87 180.88 185.92 181.87 184.37
  Q 186.94 176.41 191.76 168.53
  Q 192.83 166.78 193.81 164.70
  A 0.91 0.91 0.0 0 0 193.68 163.71
  Q 192.12 161.91 194.49 159.88
  A 1.15 1.13 26.6 0 1 195.33 159.61
  C 196.36 159.72 196.80 159.74 197.46 158.68
  Q 198.72 156.63 199.60 154.94
  A 0.87 0.87 0.0 0 0 199.48 153.98
  Q 199.28 153.74 198.78 153.63
  Q 198.26 153.52 197.97 152.66
  Q 197.94 152.57 197.74 151.12
  C 197.48 149.31 196.50 148.01 194.43 148.75
  A 0.76 0.73 5.1 0 0 194.02 149.08
  L 190.07 155.48
  A 1.61 1.61 0.0 0 1 187.36 155.53
  Q 185.85 153.26 186.71 151.61
  A 1.27 1.25 13.5 0 1 187.83 150.94
  L 189.68 150.94
  A 1.15 1.15 0.0 0 0 190.66 149.20
  Q 189.90 147.92 189.63 146.64
  A 0.80 0.80 0.0 0 1 190.08 145.76
  Q 191.38 145.20 191.73 145.06
  A 2.10 2.09 74.7 0 0 193.06 142.72
  Q 192.77 141.13 190.86 141.14
  A 1.36 1.35 7.0 0 0 189.56 142.15
  Q 189.09 143.95 187.57 145.74
  Q 186.90 146.53 185.31 149.02
  Q 170.98 171.54 166.05 179.51
  C 163.19 184.14 160.33 189.57 157.93 193.41
  Q 142.99 217.26 128.36 241.16
  C 126.59 244.05 123.61 247.75 122.30 249.96
  C 118.45 256.45 109.69 259.80 102.72 259.92
  Q 84.60 260.23 48.95 260.03
  A 1.68 1.68 0.0 0 1 47.28 258.35
  L 47.28 206.41
  A 0.36 0.36 0.0 0 1 47.85 206.12
  C 56.23 212.07 62.90 220.72 68.13 229.65
  Q 73.12 238.17 75.21 240.37
  C 84.30 249.88 98.39 251.65 108.70 243.86
  Q 112.31 241.12 119.52 229.48
  Q 140.01 196.40 144.75 188.28
  Q 151.65 176.44 156.40 169.39
  L 182.60 127.40
  A 5.19 5.15 86.9 0 1 183.73 126.13
  L 185.17 124.96
  A 2.56 2.48 -11.2 0 0 186.00 123.76
  Q 186.99 120.71 186.14 117.32
  A 0.94 0.94 0.0 0 0 185.40 116.63
  Q 182.43 116.09 179.57 116.80
  A 1.83 1.83 0.0 0 0 178.19 118.57
  L 178.19 124.62
  A 0.97 0.95 67.8 0 1 177.91 125.30
  Q 176.53 126.66 174.28 130.19
  C 173.08 132.07 172.01 132.85 169.91 131.82
  Q 164.96 129.41 164.79 129.33
  A 1.28 1.27 -47.3 0 0 163.65 129.38
  Q 161.75 130.43 160.46 132.47
  Q 152.88 144.42 145.57 156.51
  Z
  M 201.7656 122.4439
  A 1.33 1.33 0.0 0 0 200.4332 121.1162
  L 196.0732 121.1238
  A 1.33 1.33 0.0 0 0 194.7456 122.4561
  L 194.7544 127.5361
  A 1.33 1.33 0.0 0 0 196.0868 128.8638
  L 200.4468 128.8562
  A 1.33 1.33 0.0 0 0 201.7744 127.5239
  L 201.7656 122.4439
  Z
  M 92.29 184.31
  Q 74.22 164.62 48.52 155.23
  Q 30.68 148.71 10.71 144.62
  A 0.40 0.39 89.0 0 0 10.25 145.10
  L 13.79 160.62
  A 1.50 1.50 0.0 0 0 14.89 161.73
  Q 27.91 164.91 35.22 167.32
  Q 46.63 171.09 57.52 176.95
  C 72.27 184.90 84.29 198.63 92.51 213.36
  A 1.11 1.10 54.6 0 0 94.20 213.65
  Q 95.00 212.94 95.47 212.23
  Q 97.84 208.63 110.52 186.95
  Q 118.24 173.73 125.78 161.79
  Q 139.80 139.58 142.52 134.53
  C 144.79 130.33 143.37 127.58 140.34 124.36
  Q 136.41 120.18 131.90 122.46
  A 2.42 2.40 2.3 0 0 130.92 123.36
  L 93.35 184.21
  A 0.67 0.67 0.0 0 1 92.29 184.31
  Z
  M 212.2226 136.8828
  A 1.94 1.94 0.0 0 0 210.2927 134.9326
  L 205.4928 134.9075
  A 1.94 1.94 0.0 0 0 203.5427 136.8373
  L 203.5174 141.6572
  A 1.94 1.94 0.0 0 0 205.4473 143.6074
  L 210.2472 143.6325
  A 1.94 1.94 0.0 0 0 212.1973 141.7027
  L 212.2226 136.8828
  Z
  M 202.70 149.17
  A 1.25 1.25 0.0 0 0 201.45 147.92
  A 1.25 1.25 0.0 0 0 200.20 149.17
  A 1.25 1.25 0.0 0 0 201.45 150.42
  A 1.25 1.25 0.0 0 0 202.70 149.17
  Z
  M 128.87 275.29
  A 0.46 0.46 0.0 0 0 129.19 276.07
  Q 188.32 276.06 189.35 276.09
  Q 198.18 276.33 201.45 274.79
  C 211.97 269.84 210.96 262.20 210.91 249.67
  Q 210.88 240.29 210.82 155.19
  Q 210.82 154.87 210.46 154.73
  Q 210.05 154.57 209.82 154.93
  Q 200.96 168.80 197.85 173.83
  C 196.50 176.01 194.78 178.50 194.78 180.76
  Q 194.78 216.23 194.90 255.37
  Q 194.91 257.45 194.47 259.33
  A 0.98 0.98 0.0 0 1 193.51 260.10
  Q 155.67 260.09 146.75 260.13
  Q 144.64 260.14 143.65 261.62
  C 140.32 266.56 135.83 271.38 130.86 273.96
  Q 129.49 274.67 128.87 275.29
  Z"
/>
<path fill="#0a96b7" d="
  M 71.67 36.26
  L 80.28 52.20
  L 48.61 52.19
  A 1.30 1.30 0.0 0 0 47.31 53.49
  L 47.31 122.65
  A 2.03 2.03 0.0 0 0 48.72 124.58
  C 68.23 130.86 85.51 138.93 101.43 151.97
  A 1.82 1.82 0.0 0 1 101.83 154.34
  L 95.04 165.34
  A 1.77 1.76 36.6 0 1 92.37 165.73
  C 83.53 157.91 74.44 151.88 63.86 147.25
  Q 48.52 140.54 32.12 136.36
  A 1.14 1.13 7.2 0 1 31.26 135.26
  Q 31.33 88.62 31.26 58.03
  Q 31.24 49.33 32.67 46.15
  Q 35.34 40.26 41.01 37.57
  Q 43.81 36.24 55.70 36.28
  Q 63.71 36.31 71.67 36.26
  Z"
/>
<path fill="#0bbebc" d="
  M 80.28 52.20
  L 71.67 36.26
  Q 117.73 36.25 163.69 36.28
  C 168.22 36.28 175.01 44.39 181.98 51.37
  Q 192.10 61.49 208.41 77.07
  Q 210.80 79.35 210.84 84.83
  Q 210.91 94.74 210.88 95.97
  A 0.32 0.31 23.5 0 1 210.34 96.18
  L 207.55 93.39
  A 1.17 1.16 68.6 0 0 206.78 93.05
  L 195.77 92.52
  A 1.37 1.33 -20.1 0 1 194.89 92.13
  L 194.19 91.43
  A 1.68 1.66 68.2 0 0 193.06 90.94
  Q 184.77 90.70 171.25 90.80
  C 161.78 90.87 154.09 84.42 153.96 74.51
  Q 153.83 64.58 153.96 53.33
  A 1.20 1.20 0.0 0 0 152.76 52.11
  L 80.28 52.20
  Z
  M 185.52 76.42
  A 0.37 0.37 0.0 0 0 185.77 75.79
  Q 178.08 68.26 171.63 61.87
  Q 170.43 60.67 168.94 60.05
  A 0.36 0.36 0.0 0 0 168.45 60.38
  L 168.45 73.89
  A 1.96 1.96 0.0 0 0 169.61 75.68
  Q 171.48 76.52 174.75 76.49
  Q 180.91 76.42 185.52 76.42
  Z"
/>
<path fill="#ffffff" d="
  M 185.52 76.42
  Q 180.91 76.42 174.75 76.49
  Q 171.48 76.52 169.61 75.68
  A 1.96 1.96 0.0 0 1 168.45 73.89
  L 168.45 60.38
  A 0.36 0.36 0.0 0 1 168.94 60.05
  Q 170.43 60.67 171.63 61.87
  Q 178.08 68.26 185.77 75.79
  A 0.37 0.37 0.0 0 1 185.52 76.42
  Z"
/>
<path fill="#10afb8" d="
  M 132.34 82.93
  Q 132.67 82.94 132.79 83.37
  Q 133.42 85.71 134.97 87.29
  Q 136.53 88.88 138.85 89.56
  Q 139.29 89.69 139.28 90.02
  Q 139.28 90.35 138.85 90.47
  Q 136.50 91.10 134.92 92.65
  Q 133.34 94.21 132.66 96.53
  Q 132.53 96.97 132.20 96.96
  Q 131.87 96.96 131.75 96.53
  Q 131.11 94.18 129.56 92.60
  Q 128.01 91.02 125.68 90.34
  Q 125.25 90.21 125.25 89.88
  Q 125.26 89.55 125.69 89.43
  Q 128.03 88.79 129.61 87.24
  Q 131.20 85.69 131.88 83.36
  Q 132.01 82.93 132.34 82.93
  Z"
/>
<path fill="#10afb8" d="
  M 157.14 113.33
  C 154.91 115.55 153.51 118.69 152.69 121.68
  A 0.57 0.57 0.0 0 1 151.58 121.65
  Q 149.20 111.35 138.93 108.98
  A 0.54 0.54 0.0 0 1 138.90 107.94
  C 142.07 107.01 145.06 105.89 147.40 103.55
  C 149.75 101.22 150.88 98.23 151.82 95.07
  A 0.54 0.54 0.0 0 1 152.86 95.10
  Q 155.19 105.38 165.48 107.80
  A 0.57 0.57 0.0 0 1 165.51 108.91
  C 162.51 109.72 159.37 111.11 157.14 113.33
  Z"
/>
<rect fill="#10afb8" x="-3.94" y="-3.94" transform="translate(198.43,105.18) rotate(-0.1)" width="7.88" height="7.88" rx="1.48"/>
<path fill="#10afb8" d="
  M 222.70 108.31
  Q 223.13 108.31 223.24 108.84
  C 224.07 112.69 226.65 116.23 230.39 117.51
  Q 232.22 118.13 232.24 118.15
  A 0.47 0.47 0.0 0 1 232.33 118.88
  Q 232.28 118.93 229.71 120.25
  C 226.16 122.07 224.01 125.35 223.15 129.33
  Q 223.03 129.88 222.62 129.88
  Q 222.21 129.88 222.09 129.32
  C 221.26 125.34 219.14 122.04 215.60 120.20
  Q 213.04 118.86 212.99 118.81
  A 0.47 0.47 0.0 0 1 213.09 118.08
  Q 213.11 118.06 214.94 117.45
  C 218.69 116.20 221.29 112.68 222.15 108.84
  Q 222.27 108.31 222.70 108.31
  Z"
/>
<path fill="#10afb8" d="
  M 156.40 169.39
  L 149.73 163.20
  C 150.74 164.04 152.30 164.69 153.24 163.41
  C 155.84 159.89 151.34 157.26 149.65 160.78
  L 145.57 156.51
  Q 152.88 144.42 160.46 132.47
  Q 161.75 130.43 163.65 129.38
  A 1.28 1.27 -47.3 0 1 164.79 129.33
  Q 164.96 129.41 169.91 131.82
  C 172.01 132.85 173.08 132.07 174.28 130.19
  Q 176.53 126.66 177.91 125.30
  A 0.97 0.95 67.8 0 0 178.19 124.62
  L 178.19 118.57
  A 1.83 1.83 0.0 0 1 179.57 116.80
  Q 182.43 116.09 185.40 116.63
  A 0.94 0.94 0.0 0 1 186.14 117.32
  Q 186.99 120.71 186.00 123.76
  A 2.56 2.48 -11.2 0 1 185.17 124.96
  L 183.73 126.13
  A 5.19 5.15 86.9 0 0 182.60 127.40
  L 156.40 169.39
  Z
  M 165.8652 143.4012
  A 1.72 1.72 0.0 0 0 164.4355 141.4333
  L 161.6502 140.9921
  A 1.72 1.72 0.0 0 0 159.6823 142.4219
  L 159.1348 145.8788
  A 1.72 1.72 0.0 0 0 160.5645 147.8467
  L 163.3498 148.2879
  A 1.72 1.72 0.0 0 0 165.3177 146.8581
  L 165.8652 143.4012
  Z"
/>
<rect fill="#10afb8" x="-3.51" y="-3.87" transform="translate(198.26,124.99) rotate(-0.1)" width="7.02" height="7.74" rx="1.33"/>
<path fill="#0b7cb3" d="
  M 92.29 184.31
  A 0.67 0.67 0.0 0 0 93.35 184.21
  L 130.92 123.36
  A 2.42 2.40 2.3 0 1 131.90 122.46
  Q 136.41 120.18 140.34 124.36
  C 143.37 127.58 144.79 130.33 142.52 134.53
  Q 139.80 139.58 125.78 161.79
  Q 118.24 173.73 110.52 186.95
  Q 97.84 208.63 95.47 212.23
  Q 95.00 212.94 94.20 213.65
  A 1.11 1.10 54.6 0 1 92.51 213.36
  C 84.29 198.63 72.27 184.90 57.52 176.95
  Q 46.63 171.09 35.22 167.32
  Q 27.91 164.91 14.89 161.73
  A 1.50 1.50 0.0 0 1 13.79 160.62
  L 10.25 145.10
  A 0.40 0.39 89.0 0 1 10.71 144.62
  Q 30.68 148.71 48.52 155.23
  Q 74.22 164.62 92.29 184.31
  Z
  M 130.6792 134.2413
  A 3.56 3.31 -97.6 0 0 127.8691 138.2078
  A 3.56 3.31 -97.6 0 0 131.6208 141.2987
  A 3.56 3.31 -97.6 0 0 134.4309 137.3322
  A 3.56 3.31 -97.6 0 0 130.6792 134.2413
  Z"
/>
<ellipse fill="#ffffff" cx="0.00" cy="0.00" transform="translate(131.15,137.77) rotate(-97.6)" rx="3.56" ry="3.31"/>
<rect fill="#10afb8" x="-4.34" y="-4.35" transform="translate(207.87,139.27) rotate(0.3)" width="8.68" height="8.70" rx="1.94"/>
<rect fill="#ffffff" x="-3.13" y="-3.47" transform="translate(162.50,144.64) rotate(9.0)" width="6.26" height="6.94" rx="1.72"/>
<path fill="#086cb1" d="
  M 145.57 156.51
  L 149.65 160.78
  Q 149.21 161.91 149.73 163.20
  L 156.40 169.39
  Q 151.65 176.44 144.75 188.28
  Q 140.01 196.40 119.52 229.48
  Q 112.31 241.12 108.70 243.86
  C 98.39 251.65 84.30 249.88 75.21 240.37
  Q 73.12 238.17 68.13 229.65
  C 62.90 220.72 56.23 212.07 47.85 206.12
  A 0.36 0.36 0.0 0 0 47.28 206.41
  L 47.28 258.35
  A 1.68 1.68 0.0 0 0 48.95 260.03
  Q 84.60 260.23 102.72 259.92
  C 109.69 259.80 118.45 256.45 122.30 249.96
  C 123.61 247.75 126.59 244.05 128.36 241.16
  Q 142.99 217.26 157.93 193.41
  C 160.33 189.57 163.19 184.14 166.05 179.51
  Q 170.98 171.54 185.31 149.02
  Q 186.90 146.53 187.57 145.74
  Q 189.09 143.95 189.56 142.15
  A 1.36 1.35 7.0 0 1 190.86 141.14
  Q 192.77 141.13 193.06 142.72
  A 2.10 2.09 74.7 0 1 191.73 145.06
  Q 191.38 145.20 190.08 145.76
  A 0.80 0.80 0.0 0 0 189.63 146.64
  Q 189.90 147.92 190.66 149.20
  A 1.15 1.15 0.0 0 1 189.68 150.94
  L 187.83 150.94
  A 1.27 1.25 13.5 0 0 186.71 151.61
  Q 185.85 153.26 187.36 155.53
  A 1.61 1.61 0.0 0 0 190.07 155.48
  L 194.02 149.08
  A 0.76 0.73 5.1 0 1 194.43 148.75
  C 196.50 148.01 197.48 149.31 197.74 151.12
  Q 197.94 152.57 197.97 152.66
  Q 198.26 153.52 198.78 153.63
  Q 199.28 153.74 199.48 153.98
  A 0.87 0.87 0.0 0 1 199.60 154.94
  Q 198.72 156.63 197.46 158.68
  C 196.80 159.74 196.36 159.72 195.33 159.61
  A 1.15 1.13 26.6 0 0 194.49 159.88
  Q 192.12 161.91 193.68 163.71
  A 0.91 0.91 0.0 0 1 193.81 164.70
  Q 192.83 166.78 191.76 168.53
  Q 186.94 176.41 181.87 184.37
  C 180.88 185.92 180.12 187.87 179.05 189.59
  Q 157.45 224.25 144.13 246.01
  Q 143.60 246.88 140.25 252.81
  Q 126.94 276.38 98.07 276.16
  Q 66.32 275.93 48.50 276.14
  Q 34.73 276.30 31.64 263.33
  Q 31.32 261.97 31.33 255.75
  Q 31.37 205.40 31.32 180.56
  A 0.53 0.53 0.0 0 1 32.03 180.06
  Q 39.37 182.64 44.96 185.32
  Q 47.13 186.35 56.53 192.51
  C 70.10 201.40 78.49 214.68 86.25 228.17
  C 87.97 231.17 91.58 233.19 95.33 232.67
  C 99.15 232.15 101.36 228.07 103.83 224.10
  Q 122.87 193.60 125.29 189.55
  Q 138.61 167.28 145.57 156.51
  Z
  M 185.54 168.09
  A 2.44 2.44 0.0 0 0 183.10 165.65
  A 2.44 2.44 0.0 0 0 180.66 168.09
  A 2.44 2.44 0.0 0 0 183.10 170.53
  A 2.44 2.44 0.0 0 0 185.54 168.09
  Z"
/>
<circle fill="#0b7cb3" cx="201.45" cy="149.17" r="1.25"/>
<path fill="#088db5" d="
  M 128.87 275.29
  Q 129.49 274.67 130.86 273.96
  C 135.83 271.38 140.32 266.56 143.65 261.62
  Q 144.64 260.14 146.75 260.13
  Q 155.67 260.09 193.51 260.10
  A 0.98 0.98 0.0 0 0 194.47 259.33
  Q 194.91 257.45 194.90 255.37
  Q 194.78 216.23 194.78 180.76
  C 194.78 178.50 196.50 176.01 197.85 173.83
  Q 200.96 168.80 209.82 154.93
  Q 210.05 154.57 210.46 154.73
  Q 210.82 154.87 210.82 155.19
  Q 210.88 240.29 210.91 249.67
  C 210.96 262.20 211.97 269.84 201.45 274.79
  Q 198.18 276.33 189.35 276.09
  Q 188.32 276.06 129.19 276.07
  A 0.46 0.46 0.0 0 1 128.87 275.29
  Z"
/>
<path fill="#ffffff" d="
  M 149.73 163.20
  Q 149.21 161.91 149.65 160.78
  C 151.34 157.26 155.84 159.89 153.24 163.41
  C 152.30 164.69 150.74 164.04 149.73 163.20
  Z"
/>
<circle fill="#ffffff" cx="183.10" cy="168.09" r="2.44"/>
</svg>
