<svg width="120" height="120" viewBox="0 0 120 120" fill="none" xmlns="http://www.w3.org/2000/svg">
  <!-- Dokument Hauptfläche -->
  <rect x="35" y="20" width="50" height="70" rx="4" fill="#4ECDC4"/>
  
  <!-- Eselsohrecke (Fold) -->
  <path d="M 75 20 L 85 20 L 85 30 Z" fill="#2BBAB4"/>
  <path d="M 85 20 L 85 30 L 75 20 Z" fill="#3CC8C8"/>
  
  <!-- Textzeilen im Dokument -->
  <rect x="42" y="32" width="28" height="2.5" rx="1.25" fill="#1B5E8A"/>
  <rect x="42" y="40" width="32" height="2.5" rx="1.25" fill="#1B5E8A"/>
  <rect x="42" y="48" width="20" height="2.5" rx="1.25" fill="#1B5E8A"/>
  
  <!-- Doppeltes Häkchen (gestaffelt) -->
  <!-- Hinteres Häkchen (versetzt) -->
  <path d="M 46 64 L 54 72 L 78 48" stroke="#1B5E8A" stroke-width="6" stroke-linecap="round" stroke-linejoin="round" fill="none" opacity="0.6"/>
  <!-- Vorderes Häkchen -->
  <path d="M 48 66 L 56 74 L 80 50" stroke="#1B5E8A" stroke-width="6" stroke-linecap="round" stroke-linejoin="round" fill="none"/>
  
  <!-- Sparkle-Sterne links -->
  <!-- Stern 1 (groß) -->
  <path d="M 28 45 L 29 47 L 31 48 L 29 49 L 28 51 L 27 49 L 25 48 L 27 47 Z" fill="#4ECDC4"/>
  <!-- Stern 2 (klein) -->
  <path d="M 20 55 L 20.5 56 L 21.5 56.5 L 20.5 57 L 20 58 L 19.5 57 L 18.5 56.5 L 19.5 56 Z" fill="#3CC8C8"/>
  <!-- Stern 3 (mittel) -->
  <path d="M 24 62 L 24.8 63.5 L 26.5 64.3 L 24.8 65 L 24 66.5 L 23.2 65 L 21.5 64.3 L 23.2 63.5 Z" fill="#2BBAB4"/>
</svg>
